<svg width="43" height="43" viewBox="0 0 43 43" fill="none" xmlns="http://www.w3.org/2000/svg">
    <g clip-path="url(#clip0_4432_96)">
        <rect width="43" height="43" rx="9.14894" fill="url(#paint0_linear_4432_96)" />
        <path fill-rule="evenodd" clip-rule="evenodd"
            d="M28.3771 9.14568C28.3543 9.03197 28.3057 8.92503 28.2349 8.83317C28.1641 8.74131 28.0731 8.66699 27.9689 8.61598C27.8648 8.56498 27.7503 8.53866 27.6343 8.53907C27.5183 8.53948 27.404 8.5666 27.3002 8.61834L26.7014 8.91723C25.6828 9.4269 24.8776 10.2808 24.4285 11.3275C23.9794 12.3742 23.9154 13.5461 24.2479 14.6355L20.5625 18.3209C20.4883 18.39 20.4289 18.4733 20.3876 18.5659C20.3464 18.6585 20.3242 18.7584 20.3224 18.8598C20.3206 18.9611 20.3392 19.0618 20.3772 19.1558C20.4152 19.2498 20.4717 19.3351 20.5433 19.4068C20.615 19.4785 20.7004 19.535 20.7944 19.573C20.8884 19.6109 20.989 19.6296 21.0904 19.6278C21.1917 19.626 21.2917 19.6038 21.3842 19.5626C21.4768 19.5213 21.5602 19.4618 21.6293 19.3877L25.3146 15.7023C26.404 16.0348 27.576 15.9708 28.6227 15.5217C29.6694 15.0726 30.5233 14.2673 31.0329 13.2487L31.3318 12.6499C31.3836 12.5461 31.4107 12.4318 31.4111 12.3158C31.4115 12.1999 31.3852 12.0854 31.3342 11.9812C31.2832 11.8771 31.2089 11.7861 31.117 11.7153C31.0251 11.6445 30.9182 11.5958 30.8045 11.5731L28.7816 11.1685L28.3771 9.14568ZM29.5244 12.8562C29.1324 13.4785 28.5445 13.9525 27.8533 14.2036C27.1622 14.4547 26.4071 14.4686 25.7071 14.243C25.4818 13.5432 25.4958 12.7883 25.7469 12.0974C25.998 11.4064 26.4719 10.8187 27.0939 10.4268L27.4009 11.9575C27.4301 12.1035 27.5019 12.2376 27.6072 12.3429C27.7125 12.4482 27.8466 12.52 27.9926 12.5493L29.5244 12.8562Z"
            fill="white" />
        <path
            d="M21.6163 14.8015C20.7732 14.6931 19.9172 14.8503 19.1676 15.2512C18.418 15.6522 17.8122 16.277 17.4345 17.0386C17.0567 17.8002 16.926 18.6606 17.0604 19.5C17.1947 20.3394 17.5876 21.116 18.1842 21.7216C18.7808 22.3271 19.5514 22.7316 20.3887 22.8785C21.226 23.0254 22.0883 22.9075 22.8554 22.5413C23.6225 22.175 24.2563 21.5785 24.6685 20.835C25.0806 20.0915 25.2506 19.238 25.1548 18.3933C25.1365 18.1968 25.196 18.0008 25.3205 17.8476C25.445 17.6944 25.6246 17.5961 25.8208 17.5737C26.0169 17.5513 26.214 17.6067 26.3698 17.7279C26.5257 17.8491 26.6278 18.0266 26.6543 18.2223C26.7857 19.379 26.553 20.5479 25.9887 21.5662C25.4243 22.5845 24.5564 23.4013 23.5059 23.9031C22.4554 24.4048 21.2745 24.5663 20.1278 24.3652C18.9811 24.164 17.9257 23.6102 17.1087 22.781C16.2916 21.9517 15.7535 20.8882 15.5694 19.7386C15.3853 18.5891 15.5644 17.4107 16.0816 16.3678C16.5989 15.3248 17.4285 14.4691 18.4551 13.92C19.4816 13.3708 20.6539 13.1555 21.8085 13.304C21.9069 13.3167 22.0017 13.3485 22.0877 13.3978C22.1738 13.4471 22.2492 13.5129 22.3098 13.5913C22.3704 13.6698 22.415 13.7594 22.441 13.8551C22.4669 13.9507 22.4738 14.0506 22.4612 14.1489C22.4485 14.2472 22.4167 14.3421 22.3674 14.4281C22.3181 14.5141 22.2524 14.5896 22.1739 14.6502C22.0955 14.7108 22.0058 14.7554 21.9102 14.7813C21.8145 14.8073 21.7146 14.8142 21.6163 14.8015Z"
            fill="white" />
        <path
            d="M17.5909 11.3275C19.2096 10.5738 21.0282 10.362 22.7768 10.7236C22.8739 10.7437 22.9741 10.7443 23.0715 10.7257C23.1689 10.707 23.2617 10.6693 23.3445 10.6148C23.4273 10.5603 23.4986 10.49 23.5543 10.4079C23.61 10.3258 23.6489 10.2335 23.669 10.1364C23.689 10.0393 23.6897 9.93914 23.671 9.84173C23.6523 9.74433 23.6147 9.65155 23.5601 9.56871C23.5056 9.48586 23.4353 9.41457 23.3532 9.3589C23.2711 9.30323 23.1789 9.26427 23.0817 9.24425C21.0154 8.81722 18.8664 9.06768 16.9536 9.95846C15.0408 10.8492 13.4661 12.3329 12.4631 14.1893C11.4601 16.0457 11.0823 18.176 11.3856 20.2641C11.689 22.3523 12.6574 24.287 14.1471 25.7813C15.6369 27.2755 17.5687 28.2498 19.6559 28.5595C21.7431 28.8691 23.8745 28.4978 25.7339 27.5004C27.5934 26.503 29.0818 24.9328 29.9784 23.0228C30.8749 21.1127 31.1319 18.9645 30.7111 16.8968C30.6913 16.7997 30.6526 16.7074 30.5971 16.6252C30.5416 16.5431 30.4705 16.4726 30.3877 16.418C30.305 16.3633 30.2124 16.3255 30.115 16.3066C30.0177 16.2877 29.9176 16.2882 29.8205 16.3081C29.6243 16.3481 29.4521 16.4644 29.3417 16.6315C29.287 16.7142 29.2491 16.8068 29.2303 16.9042C29.2114 17.0015 29.2119 17.1016 29.2318 17.1987C29.5424 18.7265 29.4167 20.3109 28.8688 21.7705C28.321 23.2302 27.3733 24.5061 26.1341 25.4522C24.895 26.3984 23.4145 26.9765 21.8621 27.1204C20.3097 27.2643 18.7481 26.9683 17.3561 26.2661C15.9642 25.5639 14.798 24.484 13.9912 23.1499C13.1844 21.8159 12.7694 20.2816 12.7939 18.7227C12.8184 17.1639 13.2814 15.6434 14.1297 14.3354C14.978 13.0273 16.1775 11.9856 17.5909 11.3275Z"
            fill="white" />
        <path
            d="M18.0688 36.3999C17.7077 36.3999 17.3832 36.3145 17.0953 36.1437C16.8074 35.973 16.5781 35.7461 16.4073 35.4631C16.2366 35.1752 16.1512 34.858 16.1512 34.5116C16.1512 34.1651 16.2366 33.8504 16.4073 33.5674C16.5781 33.2844 16.8074 33.0599 17.0953 32.894C17.3832 32.7233 17.7077 32.6379 18.0688 32.6379C18.4299 32.6379 18.7543 32.7233 19.0422 32.894C19.3301 33.0599 19.557 33.2868 19.7229 33.5747C19.8888 33.8577 19.9718 34.17 19.9718 34.5116C19.9718 34.858 19.8888 35.1752 19.7229 35.4631C19.557 35.7461 19.3277 35.973 19.0349 36.1437C18.747 36.3145 18.425 36.3999 18.0688 36.3999ZM18.0688 35.7119C18.2932 35.7119 18.4933 35.6582 18.669 35.5509C18.8495 35.4435 18.991 35.2996 19.0935 35.1191C19.1959 34.9336 19.2472 34.7336 19.2472 34.5189C19.2472 34.2993 19.1959 34.0993 19.0935 33.9187C18.991 33.7382 18.8495 33.5942 18.669 33.4869C18.4933 33.3747 18.2932 33.3185 18.0688 33.3185C17.8443 33.3185 17.6418 33.3747 17.4613 33.4869C17.2856 33.5942 17.1441 33.7382 17.0368 33.9187C16.9294 34.0993 16.8758 34.2993 16.8758 34.5189C16.8758 34.7336 16.9294 34.9336 17.0368 35.1191C17.1441 35.2996 17.2856 35.4435 17.4613 35.5509C17.6418 35.6582 17.8443 35.7119 18.0688 35.7119ZM24.2869 36.3121H23.3939L22.2521 35.0605C22.1057 34.8946 22.0326 34.7116 22.0326 34.5116C22.0326 34.3213 22.1082 34.1432 22.2595 33.9773L23.4086 32.7257H24.2942L22.7498 34.4091C22.7303 34.4237 22.7132 34.4408 22.6986 34.4603C22.6888 34.475 22.684 34.492 22.684 34.5116C22.684 34.5262 22.6888 34.5433 22.6986 34.5628C22.7132 34.5774 22.7303 34.5945 22.7498 34.614L24.2869 36.3121ZM21.652 36.3121H20.9274V31.0716H21.652V36.3121ZM21.5275 34.7897V34.2188H22.3326V34.7897H21.5275ZM25.7227 36.3121H24.9981V34.1749C24.9981 33.8821 25.0517 33.6211 25.1591 33.3917C25.2713 33.1624 25.4323 32.9819 25.6422 32.8501C25.8569 32.7184 26.1203 32.6525 26.4326 32.6525C26.5497 32.6525 26.662 32.6647 26.7693 32.6891C26.8815 32.7086 26.984 32.7403 27.0767 32.7842V33.5015C26.9889 33.4478 26.8937 33.4088 26.7913 33.3844C26.6937 33.36 26.5961 33.3478 26.4985 33.3478C26.2594 33.3478 26.0691 33.4259 25.9276 33.582C25.791 33.7333 25.7227 33.9407 25.7227 34.2042V36.3121Z"
            fill="white" />
    </g>
    <defs>
        <linearGradient id="paint0_linear_4432_96" x1="-28.0567" y1="73.1915" x2="36.7482" y2="4.11702"
            gradientUnits="userSpaceOnUse">
            <stop stop-color="#040404" />
            <stop offset="1" stop-color="#FF8356" />
        </linearGradient>
        <clipPath id="clip0_4432_96">
            <rect width="43" height="43" rx="9.14894" fill="white" />
        </clipPath>
    </defs>
</svg>